# xmcd
#
# Track frame offsets:
#	150
#	15442
#	32192
#	51015
#	69186
#	86725
#	104588
#	117874
#	133555
#	152951
#	168542
#	186550
#	204022
#	222940
#	241229
#	256587
#	285982
#	301328
#
# Disc length: 4175 seconds
#
# Revision: 2
# Processed by: cddbd v1.5.2PL0 Copyright (c) Steve Scherf et al.
# Submitted via: audiograbber 1.83.01
#
DISCID=f1104d12
DTITLE=Various Artist - Promo Only Country Radio 2-2007
DYEAR=2007
DGENRE=Country
TTITLE0=Sugarland - Settlin'
TTITLE1=Knny Chesney - Beer In Mexico @
TTITLE2=Heartland - Built To Last
TTITLE3=Alan Jackson - A Woman's Love (Edit)
TTITLE4=Emerson Drive - Moments (Radio Edit)
TTITLE5=Jimmy Buffett - Everybody's On The Phone @
TTITLE6=George Jones - God's Country @
TTITLE7=John Anderson - A Woman Knows @
TTITLE8=Martina McBride - Anyway (Radio Fade)
TTITLE9=Cole Deggs and The Lonesome - I Got More
TTITLE10=Alison Krauss and John Waite - Missing You
TTITLE11=Catherine Britt - What I Did Last Night @
TTITLE12=Joan Osborne - Who Divided
TTITLE13=Bruce Hornsby and The Noisemakers - King Harvest
TTITLE14=Guster - This Wheel's On Fire
TTITLE15=Widespread Panic - Chest Fever @
TTITLE16=Aaron Russell - You Won't Be Lonely Long
TTITLE17=Brittany Clarke - Dream
EXTD=
EXTT0=
EXTT1=
EXTT2=
EXTT3=
EXTT4=
EXTT5=
EXTT6=
EXTT7=
EXTT8=
EXTT9=
EXTT10=
EXTT11=
EXTT12=
EXTT13=
EXTT14=
EXTT15=
EXTT16=
EXTT17=
PLAYORDER=
